HIERARCHY
ROOT pelvis
{
  OFFSET 0 100 0
  CHANNELS 6 Xposition Yposition Zposition Zrotation Xrotation Yrotation
  JOINT pelvis_right_femur
  {
    OFFSET -10.78128 -3.44521 -0.5502486
    CHANNELS 3 Zrotation Xrotation Yrotation
    JOINT right_femur_tibia
    {
      OFFSET -0.8047443 -44.0398 -0.1307829
      CHANNELS 3 Zrotation Xrotation Yrotation
      JOINT right_tibia_foot
      {
        OFFSET 3.006224 -47.83518 -5
        CHANNELS 3 Zrotation Xrotation Yrotation
        End Site
        {
          OFFSET 0 -5 15
        }
      }
    }
  }
  JOINT pelvis_left_femur
  {
    OFFSET 10.78128 -3.44521 -0.5502486
    CHANNELS 3 Zrotation Xrotation Yrotation
    JOINT left_femur_tibia
    {
      OFFSET 0.8047443 -44.0398 -0.1307829
      CHANNELS 3 Zrotation Xrotation Yrotation
      JOINT left_tibia_foot
      {
        OFFSET -4.370144 -48.10324 -4.275266
        CHANNELS 3 Zrotation Xrotation Yrotation
        End Site
        {
          OFFSET 0 -5 15
        }
      }
    }
  }
  JOINT pelvis_spine1
  {
    OFFSET 0 6.468898 -3.129235
    CHANNELS 3 Zrotation Xrotation Yrotation
    JOINT spine1
    {
      OFFSET 0 23.15396 4.99043
      CHANNELS 3 Zrotation Xrotation Yrotation
      JOINT spine2
      {
        OFFSET 0 20.79997 -5.064912
        CHANNELS 3 Zrotation Xrotation Yrotation
        JOINT neck
        {
          OFFSET 0 14.38658 9.616178
          CHANNELS 3 Zrotation Xrotation Yrotation
          End Site
          {
            OFFSET 0 20 0
          }
        }
      }
      JOINT right_manubrium
      {
        OFFSET -5.722621 16.35077 3.967754
        CHANNELS 3 Zrotation Xrotation Yrotation
        JOINT right_clavicle
        {
          OFFSET -13.16364 1.694482 -4.693211
          CHANNELS 3 Zrotation Xrotation Yrotation
          JOINT right_humerus
          {
            OFFSET -28.5034 -0.3100689 -2.792744
            CHANNELS 3 Zrotation Xrotation Yrotation
            JOINT right_radius
            {
              OFFSET -25.15693 0.02248979 -1.271978
              CHANNELS 3 Zrotation Xrotation Yrotation
              End Site
              {
                OFFSET -15 0 0
              }
            }
          }
        }
      }
      JOINT left_manubrium
      {
        OFFSET 5.722621 16.35077 3.967754
        CHANNELS 3 Zrotation Xrotation Yrotation
        JOINT left_clavicle
        {
          OFFSET 13.16364 1.694482 -4.693211
          CHANNELS 3 Zrotation Xrotation Yrotation
          JOINT left_humerus
          {
            OFFSET 29.39168 -1.063119 -2.237045
            CHANNELS 3 Zrotation Xrotation Yrotation
            JOINT left_radius
            {
              OFFSET 24.59957 -0.9528479 0.9047498
              CHANNELS 3 Zrotation Xrotation Yrotation
              End Site
              {
                OFFSET 15 -0 -0
              }
            }
          }
        }
      }
    }
  }
}
MOTION
Frames: 15
Frame Time: 0.0416666666667
2056.938 104.9245 1115.635 4.540866 4.208473 119.5052 0.5359423 -10.30386 4.022768 -0 51.95627 -0 -0.4612713 4.182166 -6.388632 -6.071746 1.757919 -8.323192 -0 14.40023 -0 1.222364 -14.11954 15.94105 -3.423893 -0.3257154 3.940132 1.011752 12.09461 -7.851364 0.6258372 21.48246 6.140839 2.183164 -19.17274 6.383334 3.434596 -18.99882 11.61845 87.34144 26.18004 -16.07982 -0 0 14.31837 -20.09976 10.02809 12.74235 3.74912 -19.67161 -4.669198 -86.83952 21.21797 16.98127 0 0 -16.54752 2.727482 6.734828 11.91086
2060.535 105.2114 1112.848 3.071748 2.868363 120.5245 1.22831 -17.00114 4.663369 -0 45.22763 -0 -0.6007448 0.5360039 -6.493165 -5.905649 5.26383 -10.16097 -0 10.25568 -0 2.046472 -16.17632 16.41916 -3.345091 -0.722695 3.781997 1.761809 11.98882 -9.050455 0.3452326 20.74661 7.032421 2.260502 -20.2629 7.323756 4.603606 -19.00101 11.77817 87.27041 30.2233 -18.6242 -0 0 14.16775 -20.30418 13.07959 12.4755 4.524063 -20.84124 -4.104657 -86.28459 21.68985 16.01651 0 0 -20.09629 2.526144 7.854827 11.92081
2063.464 104.8731 1110.499 1.525099 1.407241 121.1952 2.185344 -22.40738 5.288047 -0 36.55475 -0 -1.479651 -3.309799 -5.942254 -5.714376 8.402447 -13.26078 -0 6.506938 -0 1.445113 -18.82342 17.337 -3.156179 -1.132857 3.773835 2.136793 11.17941 -9.52671 0.3668966 20.39131 7.905885 2.812257 -21.38216 8.293641 5.595668 -18.90065 11.70657 87.29994 34.11712 -20.80827 -0 0 14.53582 -19.2847 15.27887 11.2976 5.636342 -21.68827 -3.400606 -87.33065 24.76805 16.42581 0 0 -23.26161 0.747282 10.34156 13.85746
2066.095 104.113 1108.454 0.4394659 0.2785118 121.6149 3.138296 -26.18211 5.478004 -0 29.60925 -0 -2.761605 -4.908966 -5.231631 -5.49609 10.7178 -15.68883 -0 5.083873 -0 -0.4034795 -21.30644 17.53884 -2.802159 -1.234028 3.761731 2.072694 10.05076 -9.290047 0.685368 20.47673 8.265986 3.528192 -22.12222 8.779845 5.893536 -18.50528 11.36162 87.55335 35.80666 -22.14055 -0 0 14.73359 -17.11468 15.35803 9.418319 6.607805 -22.09499 -2.975815 -89.19331 28.7748 17.61603 0 0 -25.1404 -1.451467 12.75603 16.65953
2069.008 103.0278 1106.311 -0.1842458 -0.3588757 121.984 3.465763 -29.24725 4.905726 -0 23.81987 -0 -3.154143 -3.703465 -5.094989 -5.280608 11.78395 -15.05671 -0 5.588996 -0 -1.212272 -22.64405 16.46676 -2.690722 -1.027702 3.685328 2.218235 9.671156 -9.311316 0.943043 20.22458 8.108472 3.675145 -22.42226 8.793815 5.609524 -17.96165 11.09384 87.77036 35.41593 -22.70464 -0 0 14.19113 -16.75382 15.27948 8.980595 7.231706 -22.55194 -2.72146 -88.8755 28.68983 16.68133 0 0 -25.8731 -0.9406359 13.03251 16.09659
2072.483 101.5933 1103.861 -0.4039306 -0.3504935 122.4102 2.921362 -31.25892 3.594264 -0 17.93221 -0 -2.769885 -1.871662 -5.513395 -5.274747 12.70199 -12.80019 -0 6.848223 -0 -1.282916 -23.25053 14.79911 -2.949115 -0.7300113 3.503692 2.620627 9.72237 -9.585997 1.028544 19.8519 7.824078 3.432501 -22.31847 8.587273 4.965415 -17.23888 10.95007 88.09021 33.75938 -23.12748 -0 0 12.81621 -17.7908 15.38144 9.61109 7.562985 -23.09881 -2.676322 -86.91528 26.11345 13.85183 0 0 -26.45806 0.9453377 11.85219 13.50327
2076.548 99.9379 1101.096 -0.4459946 -0.02204606 122.9299 2.153355 -32.05122 2.194945 -0 12.52365 -0 -2.347336 -0.6672447 -6.072021 -5.436806 14.02726 -10.84538 -0 8.758334 -0 -1.554258 -23.48846 13.20065 -3.251234 -0.5372035 3.267282 3.031369 9.681668 -9.780552 1.052905 19.68431 7.563073 3.184085 -22.16263 8.315541 4.272073 -16.41337 10.86145 88.5921 31.75001 -23.72213 -0 0 10.95196 -18.47382 15.06804 10.11775 7.599848 -23.45512 -2.85898 -85.14708 23.97281 11.12668 0 0 -27.18892 2.308041 10.53963 11.49096
2081.174 98.25291 1098.038 -0.3360435 0.4057849 123.5556 1.612348 -31.71871 1.257224 -0 8.653452 -0 -2.00462 -0.1443593 -6.712785 -5.621406 15.48876 -9.482966 -0 11.36197 -0 -2.042401 -23.18435 11.94591 -3.401693 -0.506707 3.043431 3.395558 9.610891 -9.905415 1.046842 19.61679 7.314514 2.998598 -22.13492 7.981215 3.666094 -15.65413 10.84791 89.12843 29.58961 -24.37752 -0 0 8.928921 -18.44563 14.26429 10.28708 7.415703 -23.58175 -3.143524 -83.81953 22.36084 8.992239 0 0 -27.79361 3.283039 9.285627 10.05684
2086.243 96.77507 1094.76 -0.06597532 0.6430355 124.2447 1.746133 -30.61177 1.252348 -0 7.396095 -0 -1.995597 -0.3225558 -7.338062 -5.572688 16.84368 -9.030985 -0 14.53947 -0 -3.003144 -22.22159 11.18427 -3.177916 -0.6045773 2.820888 3.635413 9.481294 -9.924719 1.07168 19.6091 7.070971 2.932304 -22.34991 7.640047 3.263282 -15.05197 10.87349 89.56018 27.63124 -24.91419 -0 0 7.158416 -17.43506 12.97936 9.92831 7.085615 -23.40709 -3.376225 -83.18888 21.74453 7.892745 0 0 -27.90714 3.791362 8.462804 9.444957
2091.556 95.72541 1091.388 0.2226974 0.3188199 124.8921 2.811854 -29.40993 2.253813 -0 8.798693 -0 -2.58496 -1.004453 -7.692071 -5.060793 17.71005 -9.587432 -0 18.14684 -0 -4.595076 -20.59633 10.77092 -2.455597 -0.727412 2.571987 3.722369 9.221775 -9.805453 1.163323 19.64414 6.846729 2.98714 -22.88518 7.40056 3.223067 -14.6596 10.89999 89.74557 26.61805 -25.14858 -0 0 6.129311 -15.58926 11.57696 9.131509 6.636925 -22.87702 -3.413441 -83.50445 22.61428 8.255868 0 0 -27.25655 3.584895 8.455907 10.04855
2096.935 95.16594 1088.04 0.5270743 -0.4194595 125.3833 4.385975 -28.33081 3.632235 -0 11.57053 -0 -3.702091 -2.126056 -7.705196 -4.20845 17.8708 -10.63802 -0 22.35062 -0 -6.521495 -18.48678 10.3905 -1.455084 -0.7315995 2.28587 3.713118 8.771662 -9.518994 1.328147 19.88921 6.580554 2.984746 -23.49475 7.331779 3.384725 -14.35561 10.87727 89.74246 26.57164 -24.9757 -0 0 5.76131 -13.49549 10.40663 8.220744 6.018185 -22.04051 -3.272733 -84.53376 24.72199 9.621421 0 0 -25.92628 2.728047 9.229756 11.63225
2102.294 95.03596 1084.782 0.9844658 -0.9995004 125.6465 5.746235 -26.89641 4.623774 -0 14.19866 -0 -5.0207 -3.739416 -7.551129 -3.387719 17.29581 -11.54625 -0 27.61322 -0 -8.252773 -16.18656 9.990486 -0.5671406 -0.5522838 2.023615 3.669454 8.165908 -9.047728 1.561832 20.54704 6.203954 2.772275 -23.80711 7.405914 3.427543 -13.97568 10.79426 89.7302 26.83469 -24.42897 -0 0 5.514982 -11.71359 9.561402 7.458766 5.21731 -21.0414 -3.085193 -85.73543 27.29175 11.04398 0 0 -24.27027 1.593159 10.44092 13.47993
2107.606 95.28643 1081.637 1.615431 -1.112152 125.6595 6.582742 -24.6377 5.011553 -0 16.08148 -0 -6.25489 -5.649583 -7.367044 -2.823589 15.85592 -12.05387 -0 34.00576 -0 -9.510126 -13.90676 9.75012 0.005884492 -0.2319527 1.900048 3.603784 7.564112 -8.437617 1.833919 21.52724 5.747528 2.426621 -23.71478 7.513367 3.301643 -13.54572 10.70529 89.69109 27.04014 -23.56852 -0 0 5.201289 -10.48799 9.023943 6.95541 4.366359 -20.04332 -2.903409 -86.82478 29.60529 12.13642 0 0 -22.52873 0.5208096 11.71089 15.04526
2112.842 95.90325 1078.607 2.278525 -0.8386754 125.438 6.981641 -21.44984 4.962073 -0 17.18298 -0 -7.269999 -7.511382 -7.101345 -2.536377 13.28243 -12.15304 -0 41.1558 -0 -10.29122 -11.70697 9.75303 0.2652965 0.1581065 2.028786 3.503149 7.13277 -7.767264 2.080578 22.55593 5.307405 2.124925 -23.34459 7.543153 3.191372 -13.23182 10.68485 89.43667 27.32976 -22.41969 -0 0 5.057208 -9.874246 8.829318 6.758507 3.621609 -19.17493 -2.700779 -87.85739 31.26687 13.12994 0 0 -20.81952 -0.3583922 12.76377 16.19131
2117.955 96.84341 1075.686 2.844214 -0.2899605 125.0211 7.033695 -17.32292 4.617993 -0 17.44703 -0 -8.003667 -9.063685 -6.642094 -2.480285 9.28102 -11.83418 -0 48.49608 -0 -10.62129 -9.638982 10.01358 0.2329873 0.5777267 2.498564 3.338294 6.984044 -7.086208 2.238579 23.42641 4.966185 1.991608 -22.79818 7.420411 3.242108 -13.19259 10.78273 88.79879 27.90738 -20.96733 -0 0 5.344067 -9.954228 9.030268 6.918785 3.091972 -18.54051 -2.466208 -88.88719 32.05662 14.25736 0 0 -19.2733 -0.9809657 13.4303 16.89065
